<?xml version="1.0" encoding="UTF-8"?>
<svg id="LOGO" xmlns="http://www.w3.org/2000/svg" viewBox="0 0 98.8 103.01">
  <defs>
    <style>
      .cls-1, .cls-2 {
        fill: #58371c;
      }

      .cls-2 {
        stroke: #58371c;
        stroke-miterlimit: 10;
        stroke-width: .5px;
      }
    </style>
  </defs>
  <path class="cls-2" d="M76.54,87.62s10.53-31.77,10.75-32.7c.49-2.07-.3-2.5-.3-2.5,0,0,3.83.06,6.43.06-.18.07-.37.23-.54.43-.64.76-.91,1.75-.84,2.74.42,5.94,2.3,32.72,2.27,33.63-.03,1.02,1.48,1.83,1.48,1.83,0,0-.65,0-6.3,0,.75-.6.96-1.67.96-1.67,0,0-.24-4.54-.61-8.58-.22,1.31-8.36,10.25-13.01,10.25s-6.64-5.23-6.64-5.23l-8.5-25.31s-3.77,28.47-3.59,29.26.96,1.29.96,1.29h-6.04c.32-.32.65-.82.9-1.24.27-.46.44-.97.51-1.5.63-4.93,4.15-32.5,4.15-33.58s-.55-2.36-.55-2.36l5.3.02c-2.23,1.58-.77,5.34-.77,5.34l8.01,23.52,3.56-26.57c.12-.9-.28-1.79-1.03-2.31h0c3.32,0,5.72,0,5.72,0,0,0-.51.23-.77,1.63,0,0-4.17,31.09-3.99,31.97,0,0,2.94,6.62,13.54-9.37,3.68-5.39-3.5-5.17-9.94-1.09,3.46-3.72,9.33-5.12,11.21-4.6.04-2.41-.79-13.36-.79-13.36l-10.16,30.48-2.15-.26.73-.19Z"/>
  <path class="cls-2" d="M33.77,30.68h-4.33s-2.06-1.63-2.84-4.68c-.28,3.27.91,5.8,2.62,5.8"/>
  <path class="cls-2" d="M36.65,24.25s1.03.57,1.39,2.41,2.89,13.84,2.89,13.84c0,0,.27,1.44-.89,2.24.65,0,6.12,0,6.12,0,0,0-.7-.78-1.07-2.01-.56-1.85-3.37-14.23-3.37-14.23,0,0-1.11-2.23-5.06-2.23Z"/>
  <path class="cls-2" d="M52.81,9.02h17.12l-.94,4.27s-.38-2.67-2.57-2.67h-9.5l-3.85,30.44h7.94c2.15-.2,3.61-.65,4.38-2.38.08-.19.05-.08.11-.25-.2,2.31-.34,4.12-.34,4.12l-17.18.18s1.09-.76,1.53-2.73c.52-2.32,3.79-29.56,3.79-29.56,0,0-.02-1.11-.48-1.42Z"/>
  <path class="cls-2" d="M54.1,24.67h4.14c1.05,0,2.06-.4,2.82-1.12.09-.09.17-.17.2-.21-.03.4-.35,3.18-.39,3.81,0,0-.22-.61-1.42-.9-1.53,0-5.58.02-5.58.02l.24-1.6Z"/>
  <path class="cls-2" d="M71.74,9.02l6.02.03s-1.31.67-1.51,2.34c-.31,2.62-3.66,27.66-4.38,33.04-.12.89.1,1.82.69,2.5.17.19.36.35.56.42-2.27,0-6.47-.02-6.47-.02,0,0,1.16-.78,1.38-1.92s4.43-34.16,4.43-34.16c0,0,.09-1.3-.73-2.23Z"/>
  <path class="cls-2" d="M38.14,44.19s-3.5,2.02-3.5,3.1.77,1.4,1.48,1.38c.96-.02,27.28,0,27.28,0l1.84-2.01h-26.5s-1.97.08-.61-2.47Z"/>
  <path class="cls-2" d="M46.01,52.57c-6.77-1.41-14.04,6.03-16.25,16.62-2.21,10.59,1.49,20.32,8.25,21.73,6.77,1.41,14.04-6.03,16.25-16.62,2.21-10.59-1.49-20.32-8.25-21.73ZM50.54,73.44c-2.06,9.9-7.48,17.15-12.09,16.19-4.62-.96-6.68-9.77-4.62-19.67,2.06-9.9,7.48-17.15,12.09-16.19,4.62.96,6.68,9.77,4.62,19.67Z"/>
  <path class="cls-2" d="M36.31,9.02h-5.3l.56.84c.32.47.45,1.05.37,1.61l-9.34,69.81-8.01-23.52s-1.47-3.77.77-5.34l-5.3-.02s.55.82.55,2.36c0,1.08-3.52,28.65-4.15,33.58-.07.53-.24,1.04-.51,1.5-.25.42-.58.92-.9,1.24h6.04s-.79-.5-.96-1.29c-.18-.79,3.59-29.26,3.59-29.26l8.5,25.31s.14,4.33-1.4,5.23h5.87s-.88-.58-1.05-1.46,8.15-58.95,8.15-58.95h5.87s8.17-.74,9.44-10.29c1.13-8.51.9-11.36-12.77-11.36ZM45.52,19.77c-.53,8.23-5.96,8.72-5.96,8.72h-5.52l2.32-17.81c7.09,0,9.68.86,9.16,9.09Z"/>
  <g>
    <path class="cls-1" d="M43.29,64.55c-.28,4.87-1.09,9.78-2.57,14.39.28-4.9,1.13-9.7,2.57-14.39h0Z"/>
    <path class="cls-1" d="M38.18,71.12c2.67-.23,5.24.22,7.66,1.36-2.67.24-5.24-.22-7.66-1.36h0Z"/>
    <path class="cls-1" d="M40.28,69.32c1.7,1.26,2.8,2.97,3.47,4.96-1.64-1.31-2.87-2.93-3.47-4.96h0Z"/>
    <path class="cls-1" d="M39.53,73.54c1.26-1.7,2.97-2.8,4.96-3.47-1.31,1.64-2.93,2.87-4.96,3.47h0Z"/>
  </g>
</svg>